<svg xmlns="http://www.w3.org/2000/svg" width="256" height="128" viewBox="0 0 256 128"><polyline points="8,64 64,64" fill="none" stroke="#BFCBD0" stroke-width="2"/><polyline points="192,64 248,64" fill="none" stroke="#BFCBD0" stroke-width="2"/><polyline points="143,64 160,64" fill="none" stroke="#BFCBD0" stroke-width="4"/><rect x="163" y="61" width="6" height="6" fill="#BFCBD0" stroke="#BFCBD0" stroke-width="2"/><polyline points="136,77 144,92" fill="none" stroke="#BFCBD0" stroke-width="4"/><rect x="144" y="94" width="6" height="6" fill="#BFCBD0" stroke="#BFCBD0" stroke-width="2"/><polyline points="120,77 112,92" fill="none" stroke="#BFCBD0" stroke-width="4"/><rect x="106" y="94" width="6" height="6" fill="#BFCBD0" stroke="#BFCBD0" stroke-width="2"/><polyline points="113,64 96,64" fill="none" stroke="#BFCBD0" stroke-width="4"/><rect x="87" y="61" width="6" height="6" fill="#BFCBD0" stroke="#BFCBD0" stroke-width="2"/><polyline points="120,51 112,36" fill="none" stroke="#BFCBD0" stroke-width="4"/><rect x="106" y="28" width="6" height="6" fill="#BFCBD0" stroke="#BFCBD0" stroke-width="2"/><polyline points="136,51 144,36" fill="none" stroke="#BFCBD0" stroke-width="4"/><rect x="144" y="28" width="6" height="6" fill="#BFCBD0" stroke="#BFCBD0" stroke-width="2"/><polyline points="111,84 132,64 123,43" fill="none" stroke="#BFCBD0" stroke-width="3"/></svg>