<svg xmlns="http://www.w3.org/2000/svg" width="800" height="36" viewBox="0 0 800 36" shape-rendering="crispEdges"><title>task_hint</title><g id="base"></g><g id="leather_rim"><polygon points="4,0 795,0 799,4 799,31 795,35 4,35 0,31 0,4" fill="#4A2631"/><rect x="3" y="3" width="794" height="30" fill="#A47A42"/><rect x="5" y="5" width="790" height="26" fill="#F3E2BA"/><polyline points="6,4 793,4" fill="none" stroke="#E5C779" stroke-width="1"/><polyline points="5,31 794,31" fill="none" stroke="#7D5637" stroke-width="1"/></g><g id="gold_clasps"><polyline points="18,7 7,7 7,18" fill="none" stroke="#BC9553" stroke-width="2"/><polygon points="11,9 13,11 11,13 9,11" fill="#367566"/><polyline points="781,7 792,7 792,18" fill="none" stroke="#BC9553" stroke-width="2"/><polygon points="788,9 790,11 788,13 786,11" fill="#367566"/><polyline points="18,28 7,28 7,17" fill="none" stroke="#BC9553" stroke-width="2"/><polygon points="11,22 13,24 11,26 9,24" fill="#367566"/><polyline points="781,28 792,28 792,17" fill="none" stroke="#BC9553" stroke-width="2"/><polygon points="788,22 790,24 788,26 786,24" fill="#367566"/></g><g id="divider"><polyline points="12,36 787,36" fill="none" stroke="#7D5637" stroke-width="1"/></g></svg>