<svg xmlns="http://www.w3.org/2000/svg" width="101" height="118" viewBox="0 0 101 118" shape-rendering="crispEdges"><title>frame_formation_hand</title><g id="base"></g><g id="body"><polygon points="4,0 96,0 100,4 100,113 96,117 4,117 0,113 0,4" fill="#101923"/><polygon points="4,1 96,1 99,4 99,113 96,116 4,116 1,113 1,4" fill="#9B7448"/><polygon points="5,3 95,3 97,5 97,112 95,114 5,114 3,112 3,5" fill="#122029"/></g><g id="bevel"><polyline points="6,4 94,4" fill="none" stroke="#192D38" stroke-width="1"/><polyline points="5,113 95,113" fill="none" stroke="#101923" stroke-width="1"/></g><g id="corner_inlays"><polyline points="3,11 3,3 11,3" fill="none" stroke="#C49A5A" stroke-width="2"/><rect x="3" y="3" width="2" height="2" fill="#E0BE7C"/><polyline points="97,11 97,3 89,3" fill="none" stroke="#C49A5A" stroke-width="2"/><rect x="96" y="3" width="2" height="2" fill="#E0BE7C"/><polyline points="3,106 3,114 11,114" fill="none" stroke="#C49A5A" stroke-width="2"/><rect x="3" y="113" width="2" height="2" fill="#E0BE7C"/><polyline points="97,106 97,114 89,114" fill="none" stroke="#C49A5A" stroke-width="2"/><rect x="96" y="113" width="2" height="2" fill="#E0BE7C"/></g><g id="type_band"><rect x="4" y="6" width="3" height="15" fill="#78BE98"/><polyline points="9,22 91,22" fill="none" stroke="#6D5035" stroke-width="1"/><rect x="5" y="90" width="91" height="23" fill="#192D38"/><polyline points="8,89 92,89" fill="none" stroke="#6D5035" stroke-width="1"/></g></svg>