<svg xmlns="http://www.w3.org/2000/svg" width="125" height="44" viewBox="0 0 125 44" shape-rendering="crispEdges"><title>frame_seal_strip</title><g id="base"></g><g id="leather_rim"><polygon points="4,0 120,0 124,4 124,39 120,43 4,43 0,39 0,4" fill="#4A2631"/><rect x="3" y="3" width="119" height="38" fill="#A47A42"/><rect x="5" y="5" width="115" height="34" fill="#F3E2BA"/><polyline points="6,4 118,4" fill="none" stroke="#E5C779" stroke-width="1"/><polyline points="5,39 119,39" fill="none" stroke="#7D5637" stroke-width="1"/></g><g id="gold_clasps"><polyline points="18,7 7,7 7,18" fill="none" stroke="#BC9553" stroke-width="2"/><polygon points="11,9 13,11 11,13 9,11" fill="#367566"/><polyline points="106,7 117,7 117,18" fill="none" stroke="#BC9553" stroke-width="2"/><polygon points="113,9 115,11 113,13 111,11" fill="#367566"/><polyline points="18,36 7,36 7,25" fill="none" stroke="#BC9553" stroke-width="2"/><polygon points="11,30 13,32 11,34 9,32" fill="#367566"/><polyline points="106,36 117,36 117,25" fill="none" stroke="#BC9553" stroke-width="2"/><polygon points="113,30 115,32 113,34 111,32" fill="#367566"/></g><g id="type_structure"><polyline points="9,20 9,23" fill="none" stroke="#E5C779" stroke-width="1"/><polyline points="115,20 115,23" fill="none" stroke="#E5C779" stroke-width="1"/><polygon points="62,10 66,14 62,18 58,14" fill="#E5C779"/><polygon points="62,25 66,29 62,33 58,29" fill="#E5C779"/><polyline points="16,7 22,13 16,19 10,13 16,7" fill="none" stroke="#E5C779" stroke-width="2"/><polyline points="16,11 18,13 16,15 14,13 16,11" fill="none" stroke="#E5C779" stroke-width="2"/><polygon points="16,10 19,13 16,16 13,13" fill="#367566"/><polyline points="29,7 29,36" fill="none" stroke="#A47A42" stroke-width="1"/></g></svg>